<svg xmlns="http://www.w3.org/2000/svg" width="129.479" height="260.849" viewBox="0 0 129.479 260.849"><defs><style>.cls-1{fill:#c3732a;}.cls-2{fill:#fff;}.cls-3{fill:#ff2d24;}</style></defs><g id="Layer_10" data-name="Layer 10"><path class="cls-1" d="M166.725,60.48a2.71,2.71,0,0,1-.482-.042c-2.459-.459-2.762-2.8-2.942-4.194s-.321-1.886-.791-2.049c-1.423-.491-2.278.176-3.665,1.4-1.077.952-2.294,2.033-3.964,1.774-3.514-.544-5.672-2.64-5.918-5.75-.377-4.756,4.155-11.479,12.133-14.049,6.96-2.243,11.384-.565,13.872,1.239a8.988,8.988,0,0,1,3.976,6.627,4.856,4.856,0,0,1-2.885,4.118,2.667,2.667,0,0,1-2.972-.349l-.48-.449c-2.332-2.19-2.63-2.471-5.357-2.826a9.472,9.472,0,0,0-5.308,1.9L160.058,45.5a12.115,12.115,0,0,1,7.58-2.543c3.686.481,4.527,1.27,7.023,3.613l.237.223a1.988,1.988,0,0,0,1.046-1.342,6.178,6.178,0,0,0-2.737-4.212c-1.923-1.395-5.424-2.668-11.191-.811-6.281,2.023-10.344,7.4-10.062,10.956.133,1.678,1.272,2.7,3.387,3.022.269.036,1.021-.619,1.517-1.057,1.387-1.225,3.478-3.08,6.632-1.989,2.307.8,2.595,3.025,2.785,4.5.175,1.345.283,1.586.519,1.63a3.145,3.145,0,0,0,1.365-.959A7.353,7.353,0,0,0,169.8,51l3-.154c.251,4.879-2.025,7.421-3.016,8.287A4.873,4.873,0,0,1,166.725,60.48Z" transform="translate(-87.376 -36.495)"/><path class="cls-1" d="M197.92,222.05c-.47,0-.943-.018-1.423-.054-6.143-.469-12.476-3.757-12.441-8.451.02-2.885,1.516-3.65,3.41-4.62a29.427,29.427,0,0,0,5.327-3.38,35.747,35.747,0,0,0,4.1-3.823c1.658-1.755,3.091-3.271,5.643-2.252,1.6.635,1.739,2.184,1.888,3.824a22.453,22.453,0,0,0,.9,4.932,17.1,17.1,0,0,0,2.174,4.5c.878,1.377,1.786,2.8.834,4.631C206.844,220.214,202.678,222.05,197.92,222.05Zm3.1-19.9c-.336,0-.725.334-1.955,1.635a38.733,38.733,0,0,1-4.416,4.117,32.513,32.513,0,0,1-5.819,3.7c-1.77.906-1.77.925-1.777,1.97h0c-.017,2.218,4.115,5.015,9.67,5.438,4.044.308,7.883-1,8.944-3.03.117-.226.115-.348-.7-1.633a20,20,0,0,1-2.511-5.233,25.155,25.155,0,0,1-1.023-5.543,11.4,11.4,0,0,0-.173-1.371A.748.748,0,0,0,201.023,202.148Z" transform="translate(-87.376 -36.495)"/></g><g id="Layer_4" data-name="Layer 4"><path d="M119.036,220.568c-14.138,0-27.676-10.428-30.7-13.992-.421-.5-1.3-1.525-.821-2.618l.279-.641.724-.248c.885-.26,1.524.16,3.238,1.288,3.767,2.476,11.6,7.63,17.834,3.3,2.191-1.523,4.878-6.805,7.724-12.4,6.208-12.2,13.934-27.387,26.6-28.27,5.819-.4,15.7,3.329,18.491,4.438,2.63-1.641,12.2-7.141,19.687-5.427,10.611,2.427,14.565,9.239,17.743,14.713,1.907,3.286,3.555,6.124,6.2,7.235,3.3,1.392,5.79-1.3,7.59-3.8.48-.666.859-1.191,1.665-1.209l.746-.018.481.592c.469.592.668,1.192-.772,4.047-1.507,2.991-7.22,12.756-17.249,12.39-7.359-.241-31.116-9.773-36.948-12.156-3,5.456-15.9,26.895-36.06,31.994A26.2,26.2,0,0,1,119.036,220.568Zm-19.158-8.849c6.683,3.918,15.952,7.411,24.866,5.16,21.321-5.392,34.636-31.4,34.768-31.664l.627-1.245,1.288.533c.294.122,29.468,12.2,37.158,12.448,4.91.149,8.7-2.795,11.287-5.9a7.2,7.2,0,0,1-5.01-.337c-3.569-1.5-5.541-4.9-7.628-8.5-3.036-5.231-6.477-11.159-15.816-13.3-7.328-1.676-17.921,5.359-18.026,5.43l-.669.45-.745-.311c-.119-.049-11.9-4.922-17.861-4.512-10.967.766-18.266,15.111-24.132,26.638-3.282,6.45-5.874,11.545-8.684,13.5C107.574,212.712,103.528,212.713,99.878,211.719Z" transform="translate(-87.376 -36.495)"/><path d="M119.036,220.568c-14.138,0-27.676-10.428-30.7-13.992-.421-.5-1.3-1.525-.821-2.618l.279-.641.724-.248c.885-.26,1.524.16,3.238,1.288,3.767,2.476,11.6,7.63,17.834,3.3,2.191-1.523,4.878-6.805,7.724-12.4,6.208-12.2,13.934-27.387,26.6-28.27,5.819-.4,15.7,3.329,18.491,4.438,2.63-1.641,12.2-7.141,19.687-5.427,10.611,2.427,14.565,9.239,17.743,14.713,1.907,3.286,3.555,6.124,6.2,7.235,3.3,1.392,5.79-1.3,7.59-3.8.48-.666.859-1.191,1.665-1.209l.746-.018.481.592c.469.592.668,1.192-.772,4.047-1.507,2.991-7.22,12.756-17.249,12.39-7.359-.241-31.116-9.773-36.948-12.156-3,5.456-15.9,26.895-36.06,31.994A26.2,26.2,0,0,1,119.036,220.568Zm-19.158-8.849c6.683,3.918,15.952,7.411,24.866,5.16,21.321-5.392,34.636-31.4,34.768-31.664l.627-1.245,1.288.533c.294.122,29.468,12.2,37.158,12.448,4.91.149,8.7-2.795,11.287-5.9a7.2,7.2,0,0,1-5.01-.337c-3.569-1.5-5.541-4.9-7.628-8.5-3.036-5.231-6.477-11.159-15.816-13.3-7.328-1.676-17.921,5.359-18.026,5.43l-.669.45-.745-.311c-.119-.049-11.9-4.922-17.861-4.512-10.967.766-18.266,15.111-24.132,26.638-3.282,6.45-5.874,11.545-8.684,13.5C107.574,212.712,103.528,212.713,99.878,211.719Z" transform="translate(-87.376 -36.495)"/></g><g id="Layer_5" data-name="Layer 5"><path d="M91.942,176.047a3.189,3.189,0,0,1-1.518-.386c-1.605-.859-.868-3.556-.381-5.339.1-.354.18-.656.22-.868,1.195-6.384,4.326-11.643,5.957-12.458,3.861-1.931,7.447-3.857,10.915-5.72,7.336-3.94,13.67-7.342,19-8.778,13.039-3.511,51.286,1.177,57.454,5.9a2.223,2.223,0,0,1,1.046,1.71c0,2.952-.709,3.621-2.106,3.875-.572.1-1.023.186-1.512,1.312a11.551,11.551,0,0,0-.868,4.6,6.909,6.909,0,0,1-1.228,4.453c-1.338,1.716-3.289,2.157-5.76,2.714-2.269.514-11.482.383-13.386-1.137a1.262,1.262,0,0,1-.529-1c0-1.019.1-2.463.207-3.992.175-2.509.535-7.675-.1-8.515-1.129.065-1.335,1.42-1.552,4.63a23.157,23.157,0,0,1-1.372,7.429c-.52,1.231-2.6,2.3-6.169,3.178-6.255,1.536-17.122,2.261-20.407-.447-2.656-2.191-2.783-5.043-2.894-7.558-.1-2.319-.191-4.321-2.145-5.575-1.921-.765-22.047,5.028-24.444,7.053A12.8,12.8,0,0,0,95.9,171.7a4.362,4.362,0,0,1-2.038,3.759A3.564,3.564,0,0,1,91.942,176.047ZM139.2,142.79a53.281,53.281,0,0,0-12.675,1.156c-5.165,1.391-11.429,4.756-18.683,8.652-3.478,1.868-7.074,3.8-10.954,5.739-.857.429-3.959,5.012-5.154,11.393-.045.241-.137.584-.247.987-.6,2.208-.723,3.427-.358,3.622h0a1.874,1.874,0,0,0,1.923-.144A2.863,2.863,0,0,0,94.4,171.78a14.3,14.3,0,0,1,5.006-11.8c2.232-1.885,23.73-8.764,26.222-7.169,2.608,1.674,2.723,4.266,2.833,6.771.107,2.418.208,4.7,2.351,6.467,2.546,2.1,12.355,1.8,19.094.149,3.435-.844,4.918-1.769,5.145-2.306a21.612,21.612,0,0,0,1.257-6.946c.21-3.1.409-6.031,3.137-6.031a1.3,1.3,0,0,1,.969.433c1.052,1.128.9,4.568.541,9.688-.1,1.434-.2,2.791-.2,3.752,1.147.939,9.565,1.381,12.085.812,2.561-.58,3.943-.939,4.906-2.174a5.6,5.6,0,0,0,.913-3.584,12.973,12.973,0,0,1,.991-5.142,3.12,3.12,0,0,1,2.62-2.192c.563-.1.874-.158.874-2.4,0-.043-.084-.233-.458-.519C178.264,146.207,155.411,142.79,139.2,142.79Z" transform="translate(-87.376 -36.495)"/></g><g id="Layer_6" data-name="Layer 6"><path class="cls-2" d="M148.375,166.109a2.019,2.019,0,0,1-2.067-1.285c-.489-1.319-.412-3.345-.317-5.908.142-3.768.317-8.457-1.561-11.14h0a1.691,1.691,0,0,1-.128-1.9c.921-1.528,4.235-1.547,5.859-1.342,2.307.289,3.787,1.142,4.167,2.4,1.507,5,1.149,12.443.31,15.9-.289,1.192-4.214,3.167-6.05,3.275C148.515,166.107,148.443,166.109,148.375,166.109Zm-2.186-19.3c2.136,3.239,1.951,8.191,1.8,12.185a18,18,0,0,0,.194,5.138c.623.3,3.733-1.2,4.558-1.973.731-3.242,1.029-10.143-.329-14.645-.051-.169-.451-.561-1.6-.835A8.67,8.67,0,0,0,146.189,146.806Zm6.643,15.259ZM146.05,146.6l-.8.6.812-.569A.16.16,0,0,0,146.05,146.6Z" transform="translate(-87.376 -36.495)"/><path class="cls-2" d="M172.176,165.311c-.03,0-.057,0-.084,0a1.32,1.32,0,0,1-1.287-1,18.869,18.869,0,0,1,.025-6.209,36.8,36.8,0,0,0,.141-8.937h0a1.56,1.56,0,0,1,.716-1.544c1.347-.89,4.325-.176,5.867.729,1.643.963,1.818,2.074,1.776,2.651a46.535,46.535,0,0,1-2.239,11.187C176.6,163.561,173.6,165.311,172.176,165.311Zm.817-16.083a39.672,39.672,0,0,1-.174,9.081,21.917,21.917,0,0,0-.185,4.908,6.5,6.5,0,0,0,2.576-1.71,45.11,45.11,0,0,0,2.126-10.654c.008-.107-.164-.383-.667-.7A6.6,6.6,0,0,0,172.993,149.228Zm-.038-.317Z" transform="translate(-87.376 -36.495)"/><path class="cls-1" d="M187.171,72.814A36.572,36.572,0,0,0,174.937,60.5a12.577,12.577,0,0,1-1.741,2.48,34.646,34.646,0,0,1,11.41,11.393c6.055,9.965-.019,19.28-8.425,32.173-5.736,8.8-12.168,18.679-16.274,31.106,1.023.126,2.032.262,3.031.4,4-11.817,10.209-21.362,15.755-29.869C187.36,94.892,194.206,84.394,187.171,72.814Z" transform="translate(-87.376 -36.495)"/><path class="cls-1" d="M150.894,61.28a12.328,12.328,0,0,1-4.13-1.357c-7.184,3.668-14.655,9.945-21.831,18.514C112.269,93.558,102.77,113.358,99.524,131.4c-1.135,6.307-1.625,19.742-1.625,19.742s2.024-1.038,3.011-1.555a104.5,104.5,0,0,1,1.566-17.656c3.158-17.552,12.413-36.83,24.756-51.569C135.072,71,143.4,64.437,151.089,61.292,151.023,61.284,150.961,61.29,150.894,61.28Z" transform="translate(-87.376 -36.495)"/></g><g id="Layer_8" data-name="Layer 8"><path d="M150.5,268.017c-.153,0-.309,0-.467-.007-2.694-.074-7-.923-7.8-2.955a1.89,1.89,0,0,1,.509-2.1c3.361-3.361,4.012-6.719,4.375-15.777a32.854,32.854,0,0,0-2.149-13.246c-1.1-3.229-1.976-5.78.207-8.627a3.692,3.692,0,0,1,2.663-1.752,8.86,8.86,0,0,1,6.817,2.572c3.465,3.344,5.287,9.657,5.128,17.778a39.353,39.353,0,0,0,.189,4,29.948,29.948,0,0,1-2.948,17.292h0C156.183,267,153.82,268.017,150.5,268.017Zm-6.367-3.623c.434.58,2.972,1.585,6.2,1.622,2.487.051,4.385-.608,4.873-1.66a27.893,27.893,0,0,0,2.77-16.289,41.147,41.147,0,0,1-.2-4.2c.148-7.558-1.456-13.348-4.516-16.3a6.892,6.892,0,0,0-5.318-2.015c-.427.024-.759.415-1.181.966-1.475,1.923-1.037,3.465.093,6.769a35.067,35.067,0,0,1,2.254,13.974c-.381,9.5-1.151,13.3-4.959,17.111Z" transform="translate(-87.376 -36.495)"/><path d="M178.471,265.129c-.119,0-.24,0-.36-.008a7.379,7.379,0,0,1-5.953-3.249c-1.207-1.884-.956-4.619-.665-7.786.373-4.065.838-9.126-1.612-14.088l1.793-.885c2.7,5.468,2.207,10.839,1.81,15.157-.256,2.8-.479,5.217.358,6.524a5.387,5.387,0,0,0,4.357,2.329,4.621,4.621,0,0,0,3.786-1.4c1.109-1.437.819-8.643.626-13.411l-.054-1.385c-.133-3.436-1.708-6.453-2.859-8.656-.219-.42-.422-.809-.595-1.164l1.794-.88c.167.34.363.713.574,1.118,1.169,2.237,2.934,5.619,3.084,9.506l.054,1.38c.3,7.437.4,12.846-1.04,14.713A6.422,6.422,0,0,1,178.471,265.129Z" transform="translate(-87.376 -36.495)"/></g><g id="Layer_9" data-name="Layer 9"><path class="cls-3" d="M173.215,271.159c-3.98-.939-5.989-4.02-5.569-6.338a4.869,4.869,0,0,1,2.484-3.131l1,1.733a3.015,3.015,0,0,0-1.516,1.755c-.254,1.395,1.352,3.395,4.06,4.034Z" transform="translate(-87.376 -36.495)"/><path class="cls-3" d="M199.048,289.968c-4.144,0-7.847-1.814-10.9-3.309-2.344-1.148-4.37-2.14-6.037-2.14a13.062,13.062,0,0,0-4.758,1,11.393,11.393,0,0,1-4.789.918,3.135,3.135,0,0,1-2.247-1.169c-1.583-1.905-1.917-6.149-1.051-13.355l1.986.238c-.964,8.025-.2,10.867.6,11.84a1.12,1.12,0,0,0,.839.45,9.218,9.218,0,0,0,3.981-.8,14.932,14.932,0,0,1,5.435-1.123c2.131,0,4.349,1.085,6.917,2.343,3.429,1.68,7.308,3.584,11.615,3,6.195-.844,11.43-4.461,11.431-7.9a7.007,7.007,0,0,0-2.678-5.32,5.689,5.689,0,0,0-4.562-1.406,56.818,56.818,0,0,0-6.378,1.849c-5.506,1.837-10.71,3.572-13.879-1.959-1.41-2.462.877-6.629,2.417-8.958a6.126,6.126,0,0,0-1.293-.949c-.165-.1-.315-.193-.439-.275l1.1-1.668c.106.071.235.149.375.235.85.517,2.013,1.226,2.249,2.292a1.753,1.753,0,0,1-.27,1.381c-2.373,3.56-2.92,6.055-2.409,6.948,2.25,3.928,5.5,3.062,11.512,1.055a58.284,58.284,0,0,1,6.6-1.908,7.661,7.661,0,0,1,6.232,1.811,8.9,8.9,0,0,1,3.416,6.872c0,5.061-6.693,9-13.162,9.88A13.766,13.766,0,0,1,199.048,289.968Z" transform="translate(-87.376 -36.495)"/><path class="cls-3" d="M156.522,276.529c-1.762-1.726-2.658-3.167-2.663-4.282a1.763,1.763,0,0,1,.509-1.288,8.022,8.022,0,0,1,2.426-1.4c.629-.278,2.1-.927,2.095-1.283-.015-.75-.9-1.474-1.365-1.753l1.026-1.716c.384.229,2.3,1.473,2.339,3.43.033,1.688-1.731,2.465-3.288,3.152a8.636,8.636,0,0,0-1.734.906c.04.232.306,1.091,2.055,2.8Z" transform="translate(-87.376 -36.495)"/><path class="cls-3" d="M153.912,297.344q-.362,0-.721-.011c-8.352-.256-18.36-5.349-18.745-11.529-.142-2.286,1.063-3.9,2.339-5.608a13.38,13.38,0,0,0,3.147-6.937,14.664,14.664,0,0,0-1.257-7.492l1.836-.793a16.631,16.631,0,0,1,1.408,8.507,15.259,15.259,0,0,1-3.532,7.913c-1.14,1.527-2.041,2.733-1.945,4.285.283,4.536,8.766,9.408,16.811,9.654,7.214.257,14.041-3.08,14.338-6.929s-5.747-8.453-12.2-9.3a20,20,0,0,0-9.74,1.2l-.7-1.871a21.964,21.964,0,0,1,10.705-1.315c7.678,1.01,14.32,6.461,13.936,11.439C169.172,293.92,161.286,297.344,153.912,297.344Z" transform="translate(-87.376 -36.495)"/></g><g id="Layer_11" data-name="Layer 11"><path class="cls-1" d="M191.6,200.574c.15.2.29.4.432.606.844-.7,1.583-1.371,2.253-2.006-.095-.131-.184-.264-.282-.4-5.7-7.632-14.919-12.331-22.893-11.7-10.335.818-16.757,9.56-18.48,12.219l2.519,1.631c1.533-2.368,7.233-10.15,16.2-10.86C178.352,189.519,186.488,193.735,191.6,200.574Z" transform="translate(-87.376 -36.495)"/><path class="cls-1" d="M109.284,194.632a117.372,117.372,0,0,1-7.443-29.338,7.21,7.21,0,0,0-1.486.835,7.609,7.609,0,0,0-1.237,1.38,119.7,119.7,0,0,0,7.384,28.246q.837,2.072,1.737,4.051c.584-1.122,1.177-2.281,1.776-3.458C109.772,195.776,109.52,195.216,109.284,194.632Z" transform="translate(-87.376 -36.495)"/><path class="cls-1" d="M143.863,232.577a45.75,45.75,0,0,1-16.319-10.032q-1.5.663-3.057,1.227a48.538,48.538,0,0,0,20.355,12.253C144.54,234.782,144.2,233.64,143.863,232.577Z" transform="translate(-87.376 -36.495)"/><path class="cls-1" d="M162.053,235.789c.112.962.191,1.959.249,2.978.416.009.835.023,1.245.023,12.422,0,22.2-4.324,28.726-12.728a30.44,30.44,0,0,1-3.135-.853C182.1,233.616,172.093,236.107,162.053,235.789Z" transform="translate(-87.376 -36.495)"/></g></svg>