<?xml version="1.0" encoding="UTF-8"?>
<!DOCTYPE svg PUBLIC "-//W3C//DTD SVG 1.1//EN" "http://www.w3.org/Graphics/SVG/1.1/DTD/svg11.dtd">
<svg xmlns="http://www.w3.org/2000/svg" version="1.1" width="588px" height="96px" style="shape-rendering:geometricPrecision; text-rendering:geometricPrecision; image-rendering:optimizeQuality; fill-rule:evenodd; clip-rule:evenodd" xmlns:xlink="http://www.w3.org/1999/xlink">
<g><path style="opacity:1" fill="#d3947f" d="M 361.5,7.5 C 362.461,9.26465 362.795,11.2646 362.5,13.5C 362.062,13.4346 361.728,13.6012 361.5,14C 365.067,17.446 365.4,21.2793 362.5,25.5C 361.094,25.9731 360.427,26.9731 360.5,28.5C 359.053,29.6222 358.053,31.1222 357.5,33C 352.737,32.834 348.404,34.0007 344.5,36.5C 343.587,27.1552 346.921,19.6552 354.5,14C 356.5,13.6667 358.5,13.3333 360.5,13C 355.297,10.5271 355.631,8.69374 361.5,7.5 Z"/></g>
<g><path style="opacity:1" fill="#f3efe8" d="M 358.5,16.5 C 359.833,16.5 361.167,16.5 362.5,16.5C 362.819,18.7505 362.319,20.7505 361,22.5C 360.415,20.3386 359.582,18.3386 358.5,16.5 Z"/></g>
<g><path style="opacity:0.934" fill="#5b6e68" d="M 172.5,18.5 C 188.247,16.4302 197.747,23.0969 201,38.5C 202.787,49.1875 200.287,58.6875 193.5,67C 171.175,76.9937 158.842,69.6604 156.5,45C 156.146,32.5131 161.479,23.6798 172.5,18.5 Z M 177.5,28.5 C 182.943,28.4416 186.11,31.1083 187,36.5C 188.126,44.0454 187.46,51.3788 185,58.5C 180.664,62.7283 176.664,62.3949 173,57.5C 170.098,49.9668 169.765,42.3001 172,34.5C 173.36,31.9774 175.193,29.9774 177.5,28.5 Z"/></g>
<g><path style="opacity:0.934" fill="#5b6e68" d="M 391.5,18.5 C 407.247,16.4302 416.747,23.0969 420,38.5C 421.787,49.1875 419.287,58.6875 412.5,67C 390.175,76.9937 377.842,69.6604 375.5,45C 375.146,32.5131 380.479,23.6798 391.5,18.5 Z M 396.5,28.5 C 401.943,28.4416 405.11,31.1083 406,36.5C 407.126,44.0454 406.46,51.3788 404,58.5C 399.664,62.7283 395.664,62.3949 392,57.5C 389.098,49.9668 388.765,42.3001 391,34.5C 392.36,31.9774 394.193,29.9774 396.5,28.5 Z"/></g>
<g><path style="opacity:0.934" fill="#5b6e67" d="M 533.5,18.5 C 538.511,18.3341 543.511,18.5007 548.5,19C 554.353,20.4202 558.353,23.9202 560.5,29.5C 557.571,31.3123 554.405,32.6456 551,33.5C 548.524,30.2543 545.191,28.2543 541,27.5C 534.874,28.2327 533.374,31.066 536.5,36C 541.167,37.3333 545.833,38.6667 550.5,40C 559.934,43.6991 563.434,50.5324 561,60.5C 559.167,65 556,68.1667 551.5,70C 543.384,72.192 535.384,71.8587 527.5,69C 522.932,66.0256 520.265,61.859 519.5,56.5C 523.443,55.5145 527.443,54.8478 531.5,54.5C 534.089,61.7638 539.089,63.9305 546.5,61C 549.167,58.3333 549.167,55.6667 546.5,53C 539.087,51.3086 532.087,48.6419 525.5,45C 519.849,36.8645 520.516,29.1979 527.5,22C 529.727,21.059 531.727,19.8923 533.5,18.5 Z"/></g>
<g><path style="opacity:0.923" fill="#5b6f67" d="M 4.5,19.5 C 8.83333,19.5 13.1667,19.5 17.5,19.5C 17.5,36.5 17.5,53.5 17.5,70.5C 13.1667,70.5 8.83333,70.5 4.5,70.5C 4.5,53.5 4.5,36.5 4.5,19.5 Z"/></g>
<g><path style="opacity:0.939" fill="#5b6e67" d="M 20.5,19.5 C 25.1667,19.5 29.8333,19.5 34.5,19.5C 37.5579,31.1769 40.7245,42.8436 44,54.5C 47.6397,42.9393 50.8064,31.2726 53.5,19.5C 57.5138,19.3345 61.5138,19.5012 65.5,20C 60.1411,36.4117 54.9744,52.9117 50,69.5C 45.2633,70.4692 40.43,70.8025 35.5,70.5C 30.7027,53.4415 25.7027,36.4415 20.5,19.5 Z"/></g>
<g><path style="opacity:0.984" fill="#5b6e67" d="M 69.5,19.5 C 81.8333,19.5 94.1667,19.5 106.5,19.5C 106.5,22.8333 106.5,26.1667 106.5,29.5C 98.5,29.5 90.5,29.5 82.5,29.5C 82.5,32.8333 82.5,36.1667 82.5,39.5C 88.8333,39.5 95.1667,39.5 101.5,39.5C 101.5,42.8333 101.5,46.1667 101.5,49.5C 95.1667,49.5 88.8333,49.5 82.5,49.5C 82.5,53.1667 82.5,56.8333 82.5,60.5C 90.5,60.5 98.5,60.5 106.5,60.5C 106.5,63.8333 106.5,67.1667 106.5,70.5C 94.1667,70.5 81.8333,70.5 69.5,70.5C 69.5,53.5 69.5,36.5 69.5,19.5 Z"/></g>
<g><path style="opacity:0.958" fill="#5b6e67" d="M 113.5,19.5 C 117.5,19.5 121.5,19.5 125.5,19.5C 125.334,26.8409 125.5,34.1742 126,41.5C 130.957,34.4197 135.79,27.253 140.5,20C 144.833,19.3333 149.167,19.3333 153.5,20C 149.246,25.8447 145.246,31.8447 141.5,38C 146.235,48.8026 151.235,59.4693 156.5,70C 151.833,70.6667 147.167,70.6667 142.5,70C 139.024,63.5469 135.69,57.0469 132.5,50.5C 130.174,52.9971 128.007,55.6638 126,58.5C 125.501,62.4862 125.334,66.4862 125.5,70.5C 121.5,70.5 117.5,70.5 113.5,70.5C 113.5,53.5 113.5,36.5 113.5,19.5 Z"/></g>
<g><path style="opacity:0.939" fill="#5b6e67" d="M 201.5,19.5 C 206.167,19.5 210.833,19.5 215.5,19.5C 218.558,31.1769 221.725,42.8436 225,54.5C 228.64,42.9393 231.806,31.2726 234.5,19.5C 238.514,19.3345 242.514,19.5012 246.5,20C 241.141,36.4117 235.974,52.9117 231,69.5C 226.263,70.4692 221.43,70.8025 216.5,70.5C 211.703,53.4415 206.703,36.4415 201.5,19.5 Z"/></g>
<g><path style="opacity:0.923" fill="#5b6f67" d="M 250.5,19.5 C 254.833,19.5 259.167,19.5 263.5,19.5C 263.5,36.5 263.5,53.5 263.5,70.5C 259.167,70.5 254.833,70.5 250.5,70.5C 250.5,53.5 250.5,36.5 250.5,19.5 Z"/></g>
<g><path style="opacity:0.958" fill="#5b6e67" d="M 291.5,19.5 C 295.5,19.5 299.5,19.5 303.5,19.5C 303.334,26.8409 303.5,34.1742 304,41.5C 308.957,34.4197 313.79,27.253 318.5,20C 322.833,19.3333 327.167,19.3333 331.5,20C 327.246,25.8447 323.246,31.8447 319.5,38C 324.235,48.8026 329.235,59.4693 334.5,70C 329.833,70.6667 325.167,70.6667 320.5,70C 317.024,63.5469 313.69,57.0469 310.5,50.5C 308.174,52.9971 306.007,55.6638 304,58.5C 303.501,62.4862 303.334,66.4862 303.5,70.5C 299.5,70.5 295.5,70.5 291.5,70.5C 291.5,53.5 291.5,36.5 291.5,19.5 Z"/></g>
<g><path style="opacity:0.42" fill="#292322" d="M 362.5,13.5 C 364.876,14.512 365.876,16.3454 365.5,19C 365.68,21.8021 364.68,23.9687 362.5,25.5C 365.4,21.2793 365.067,17.446 361.5,14C 361.728,13.6012 362.062,13.4346 362.5,13.5 Z"/></g>
<g><path style="opacity:0.957" fill="#5b6e67" d="M 427.5,19.5 C 439.243,19.0645 450.91,19.5645 462.5,21C 472.219,29.7345 471.553,37.4012 460.5,44C 470.425,48.0289 472.925,54.8623 468,64.5C 465.9,67.4668 463.066,69.3002 459.5,70C 448.839,70.4998 438.172,70.6665 427.5,70.5C 427.5,53.5 427.5,36.5 427.5,19.5 Z M 440.5,28.5 C 444.722,28.2627 448.889,28.596 453,29.5C 456.643,33.2891 456.143,36.4558 451.5,39C 447.848,39.4986 444.182,39.6653 440.5,39.5C 440.5,35.8333 440.5,32.1667 440.5,28.5 Z M 440.5,48.5 C 445.267,48.1908 449.934,48.6908 454.5,50C 458.5,53.3333 458.5,56.6667 454.5,60C 449.934,61.3092 445.267,61.8092 440.5,61.5C 440.5,57.1667 440.5,52.8333 440.5,48.5 Z"/></g>
<g><path style="opacity:0.95" fill="#5b6e67" d="M 488.5,19.5 C 493.975,18.9193 499.142,19.5859 504,21.5C 509.068,37.5364 514.234,53.5364 519.5,69.5C 514.833,70.8333 510.167,70.8333 505.5,69.5C 504.091,66.2732 503.091,62.9399 502.5,59.5C 497.167,59.5 491.833,59.5 486.5,59.5C 485.909,62.9399 484.909,66.2732 483.5,69.5C 479.893,70.4892 476.226,70.8226 472.5,70.5C 477.435,53.3629 482.768,36.3629 488.5,19.5 Z M 494.5,35.5 C 496.133,40.0574 497.799,44.7241 499.5,49.5C 496.216,50.657 492.882,50.8236 489.5,50C 491.091,45.1357 492.757,40.3023 494.5,35.5 Z"/></g>
<g><path style="opacity:0.923" fill="#5b6f67" d="M 569.5,19.5 C 573.833,19.5 578.167,19.5 582.5,19.5C 582.5,36.5 582.5,53.5 582.5,70.5C 578.167,70.5 573.833,70.5 569.5,70.5C 569.5,53.5 569.5,36.5 569.5,19.5 Z"/></g>
<g><path style="opacity:0.137" fill="#2f2726" d="M 362.5,25.5 C 362.573,27.0269 361.906,28.0269 360.5,28.5C 360.427,26.9731 361.094,25.9731 362.5,25.5 Z"/></g>
<g><path style="opacity:1" fill="#1b1818" d="M 361.5,7.5 C 355.631,8.69374 355.297,10.5271 360.5,13C 358.5,13.3333 356.5,13.6667 354.5,14C 346.921,19.6552 343.587,27.1552 344.5,36.5C 348.404,34.0007 352.737,32.834 357.5,33C 358.053,31.1222 359.053,29.6222 360.5,28.5C 358.707,32.4778 360.04,34.4778 364.5,34.5C 364.579,35.9305 364.246,37.2638 363.5,38.5C 366.309,39.7644 368.476,41.7644 370,44.5C 370.893,43.2888 371.726,43.2888 372.5,44.5C 371.5,45.8333 370.5,47.1667 369.5,48.5C 370.735,50.3163 370.735,51.983 369.5,53.5C 369.793,49.9177 368.46,48.5843 365.5,49.5C 365.67,48.1779 365.337,47.0113 364.5,46C 362.5,45.3333 360.5,45.3333 358.5,46C 355.5,48.3333 352.5,50.6667 349.5,53C 350.381,53.7083 351.047,54.5416 351.5,55.5C 346.9,54.5088 342.9,52.3421 339.5,49C 341.225,49.4087 342.892,49.2421 344.5,48.5C 343.694,45.5544 342.361,42.8877 340.5,40.5C 341.611,32.3915 344.111,24.7249 348,17.5C 349.708,15.4565 351.708,13.7899 354,12.5C 354.711,7.58243 357.211,5.91576 361.5,7.5 Z"/></g>
<g><path style="opacity:1" fill="#9e9b97" d="M 360.5,35.5 C 362.97,36.3603 363.137,37.6936 361,39.5C 360.51,38.2068 360.343,36.8734 360.5,35.5 Z"/></g>
<g><path style="opacity:1" fill="#d08e79" d="M 346.5,36.5 C 349.321,36.3159 350.988,37.6493 351.5,40.5C 346.395,49.8391 343.728,48.8391 343.5,37.5C 344.791,37.7373 345.791,37.404 346.5,36.5 Z"/></g>
<g><path style="opacity:1" fill="#927e77" d="M 354.5,34.5 C 356.026,36.3228 357.692,38.1562 359.5,40C 355.535,40.5248 353.869,38.6914 354.5,34.5 Z"/></g>
<g><path style="opacity:1" fill="#d19580" d="M 365.5,49.5 C 361.835,50.2927 361.835,51.626 365.5,53.5C 363.497,55.9819 360.831,56.9819 357.5,56.5C 356.778,55.4489 355.778,54.7822 354.5,54.5C 353.609,55.1098 352.609,55.4431 351.5,55.5C 351.047,54.5416 350.381,53.7083 349.5,53C 352.5,50.6667 355.5,48.3333 358.5,46C 360.5,45.3333 362.5,45.3333 364.5,46C 365.337,47.0113 365.67,48.1779 365.5,49.5 Z"/></g>
<g><path style="opacity:1" fill="#846155" d="M 369.5,53.5 C 369.167,53.5 368.833,53.5 368.5,53.5C 367.5,53.5 366.5,53.5 365.5,53.5C 361.835,51.626 361.835,50.2927 365.5,49.5C 368.46,48.5843 369.793,49.9177 369.5,53.5 Z"/></g>
<g><path style="opacity:0.949" fill="#2e2724" d="M 354.5,54.5 C 354.5,55.5 354.5,56.5 354.5,57.5C 353.29,57.0679 352.29,56.4013 351.5,55.5C 352.609,55.4431 353.609,55.1098 354.5,54.5 Z"/></g>
<g><path style="opacity:1" fill="#c5c4c0" d="M 354.5,54.5 C 355.778,54.7822 356.778,55.4489 357.5,56.5C 357.662,58.5273 357.495,60.5273 357,62.5C 356.023,63.7736 355.189,63.7736 354.5,62.5C 354.5,60.8333 354.5,59.1667 354.5,57.5C 354.5,56.5 354.5,55.5 354.5,54.5 Z"/></g>
<g><path style="opacity:0.29" fill="#2d2121" d="M 365.5,53.5 C 366.5,53.5 367.5,53.5 368.5,53.5C 367.312,54.3636 366.145,55.3636 365,56.5C 364.505,59.5314 364.671,62.5314 365.5,65.5C 367.5,65.5 369.5,65.5 371.5,65.5C 371.768,67.099 371.434,68.4324 370.5,69.5C 370.5,68.5 370.5,67.5 370.5,66.5C 368.5,66.5 366.5,66.5 364.5,66.5C 364.715,64.8212 364.048,63.8212 362.5,63.5C 363.694,61.5156 363.694,59.5156 362.5,57.5C 361.534,59.396 361.201,61.396 361.5,63.5C 360.549,64.9187 360.216,66.5853 360.5,68.5C 362.099,68.2322 363.432,68.5655 364.5,69.5C 363.041,69.4326 361.708,69.7659 360.5,70.5C 359.264,68.1725 357.264,67.0058 354.5,67C 357.375,66.1055 357.708,65.2722 355.5,64.5C 354.261,64.9424 353.261,65.6091 352.5,66.5C 352.157,64.5168 352.824,63.1834 354.5,62.5C 355.189,63.7736 356.023,63.7736 357,62.5C 357.495,60.5273 357.662,58.5273 357.5,56.5C 360.831,56.9819 363.497,55.9819 365.5,53.5 Z M 358.5,58.5 C 359.695,58.8656 360.361,59.699 360.5,61C 359.922,62.8114 359.422,64.6447 359,66.5C 358.503,63.854 358.336,61.1873 358.5,58.5 Z"/></g>
<g><path style="opacity:1" fill="#dddbd6" d="M 362.5,63.5 C 362.167,63.5 361.833,63.5 361.5,63.5C 361.201,61.396 361.534,59.396 362.5,57.5C 363.694,59.5156 363.694,61.5156 362.5,63.5 Z"/></g>
<g><path style="opacity:1" fill="#a14b49" d="M 361.5,63.5 C 361.833,63.5 362.167,63.5 362.5,63.5C 364.048,63.8212 364.715,64.8212 364.5,66.5C 366.5,66.5 368.5,66.5 370.5,66.5C 370.5,67.5 370.5,68.5 370.5,69.5C 368.5,70.8333 366.5,70.8333 364.5,69.5C 363.432,68.5655 362.099,68.2322 360.5,68.5C 360.216,66.5853 360.549,64.9187 361.5,63.5 Z"/></g>
<g><path style="opacity:1" fill="#ba5855" d="M 360.5,70.5 C 360.5,71.1667 360.167,71.5 359.5,71.5C 357.473,71.6621 355.473,71.4955 353.5,71C 352.62,69.6439 352.286,68.1439 352.5,66.5C 353.261,65.6091 354.261,64.9424 355.5,64.5C 357.708,65.2722 357.375,66.1055 354.5,67C 357.264,67.0058 359.264,68.1725 360.5,70.5 Z"/></g>
<g><path style="opacity:0.278" fill="#23191a" d="M 352.5,66.5 C 352.286,68.1439 352.62,69.6439 353.5,71C 355.473,71.4955 357.473,71.6621 359.5,71.5C 357.372,72.6291 355.039,72.7958 352.5,72C 351.193,70.0565 351.193,68.2232 352.5,66.5 Z"/></g>
</svg>
